<svg width="44" height="44" viewBox="0 0 44 44" fill="none" xmlns="http://www.w3.org/2000/svg">
<rect width="44" height="44" fill="#78B0EF"/>
<path d="M23.5996 15.3086C23.1595 14.8685 22.6178 14.6484 21.9746 14.6484C21.3652 14.6484 20.8405 14.8685 20.4004 15.3086C19.9603 15.7487 19.7402 16.2904 19.7402 16.9336C19.7402 17.543 19.9603 18.0677 20.4004 18.5078C20.8405 18.9479 21.3652 19.168 21.9746 19.168C22.6178 19.168 23.1595 18.9479 23.5996 18.5078C24.0397 18.0677 24.2598 17.543 24.2598 16.9336C24.2598 16.2904 24.0397 15.7487 23.5996 15.3086ZM26.4434 25.2617C24.9876 24.6862 23.515 24.3984 22.0254 24.3984C20.5358 24.3984 19.0632 24.6862 17.6074 25.2617C16.1517 25.8034 15.4238 26.2773 15.4238 26.6836V27.8516H28.627V26.6836C28.627 26.2773 27.8991 25.8034 26.4434 25.2617ZM18.9277 13.8359C19.7741 12.9896 20.7897 12.5664 21.9746 12.5664C23.1934 12.5664 24.2259 12.9896 25.0723 13.8359C25.9186 14.6823 26.3418 15.7148 26.3418 16.9336C26.3418 18.1185 25.9186 19.1341 25.0723 19.9805C24.2259 20.8268 23.1934 21.25 21.9746 21.25C20.7897 21.25 19.7741 20.8268 18.9277 19.9805C18.0814 19.1341 17.6582 18.1185 17.6582 16.9336C17.6582 15.7148 18.0814 14.6823 18.9277 13.8359ZM18.4707 22.7734C19.7572 22.4688 20.9251 22.3164 21.9746 22.3164C23.0579 22.3164 24.2428 22.4688 25.5293 22.7734C26.8158 23.0781 27.9837 23.5859 29.0332 24.2969C30.1165 24.974 30.6582 25.7695 30.6582 26.6836V29.9336H13.3418V26.6836C13.3418 25.7695 13.8665 24.974 14.916 24.2969C15.9993 23.5859 17.1842 23.0781 18.4707 22.7734Z" fill="white"/>
<path d="M26.4434 25.2617L26.2595 25.7268L26.269 25.7303L26.4434 25.2617ZM17.6074 25.2617L17.7818 25.7304L17.7913 25.7267L17.6074 25.2617ZM15.4238 27.8516H14.9238V28.3516H15.4238V27.8516ZM28.627 27.8516V28.3516H29.127V27.8516H28.627ZM29.0332 24.2969L28.7528 24.7108L28.7604 24.716L28.7682 24.7209L29.0332 24.2969ZM30.6582 29.9336V30.4336H31.1582V29.9336H30.6582ZM13.3418 29.9336H12.8418V30.4336H13.3418V29.9336ZM14.916 24.2969L15.1871 24.717L15.1903 24.7149L14.916 24.2969ZM23.9532 14.955C23.4158 14.4177 22.7455 14.1484 21.9746 14.1484V15.1484C22.4902 15.1484 22.9032 15.3193 23.2461 15.6621L23.9532 14.955ZM21.9746 14.1484C21.2295 14.1484 20.5785 14.4234 20.0468 14.955L20.7539 15.6621C21.1025 15.3136 21.501 15.1484 21.9746 15.1484V14.1484ZM20.0468 14.955C19.5095 15.4924 19.2402 16.1627 19.2402 16.9336H20.2402C20.2402 16.418 20.4111 16.005 20.7539 15.6621L20.0468 14.955ZM19.2402 16.9336C19.2402 17.6787 19.5152 18.3297 20.0468 18.8614L20.7539 18.1543C20.4054 17.8057 20.2402 17.4072 20.2402 16.9336H19.2402ZM20.0468 18.8614C20.5785 19.393 21.2295 19.668 21.9746 19.668V18.668C21.501 18.668 21.1025 18.5028 20.7539 18.1543L20.0468 18.8614ZM21.9746 19.668C22.7455 19.668 23.4158 19.3987 23.9532 18.8614L23.2461 18.1543C22.9032 18.4971 22.4902 18.668 21.9746 18.668V19.668ZM23.9532 18.8614C24.4848 18.3297 24.7598 17.6787 24.7598 16.9336H23.7598C23.7598 17.4072 23.5946 17.8057 23.2461 18.1543L23.9532 18.8614ZM24.7598 16.9336C24.7598 16.1627 24.4905 15.4924 23.9532 14.955L23.2461 15.6621C23.5889 16.005 23.7598 16.418 23.7598 16.9336H24.7598ZM26.6272 24.7967C25.116 24.1993 23.5811 23.8984 22.0254 23.8984V24.8984C23.4489 24.8984 24.8593 25.1731 26.2595 25.7267L26.6272 24.7967ZM22.0254 23.8984C20.4697 23.8984 18.9348 24.1993 17.4236 24.7967L17.7913 25.7267C19.1915 25.1731 20.6019 24.8984 22.0254 24.8984V23.8984ZM17.4331 24.7931C16.6931 25.0684 16.1068 25.3375 15.6969 25.6044C15.4922 25.7377 15.3103 25.8839 15.175 26.0476C15.0395 26.2114 14.9238 26.4264 14.9238 26.6836H15.9238C15.9238 26.7377 15.8991 26.7411 15.9456 26.6848C15.9923 26.6284 16.0833 26.5461 16.2426 26.4424C16.5605 26.2354 17.066 25.9967 17.7818 25.7303L17.4331 24.7931ZM14.9238 26.6836V27.8516H15.9238V26.6836H14.9238ZM15.4238 28.3516H28.627V27.3516H15.4238V28.3516ZM29.127 27.8516V26.6836H28.127V27.8516H29.127ZM29.127 26.6836C29.127 26.4264 29.0112 26.2114 28.8758 26.0476C28.7405 25.8839 28.5586 25.7377 28.3539 25.6044C27.9439 25.3375 27.3577 25.0684 26.6177 24.7931L26.269 25.7303C26.9848 25.9967 27.4903 26.2354 27.8082 26.4424C27.9675 26.5461 28.0585 26.6284 28.1052 26.6848C28.1517 26.7411 28.127 26.7377 28.127 26.6836H29.127ZM19.2813 14.1895C20.0349 13.4358 20.9238 13.0664 21.9746 13.0664V12.0664C20.6556 12.0664 19.5132 12.5433 18.5742 13.4824L19.2813 14.1895ZM21.9746 13.0664C23.0635 13.0664 23.968 13.4388 24.7187 14.1895L25.4258 13.4824C24.4838 12.5404 23.3233 12.0664 21.9746 12.0664V13.0664ZM24.7187 14.1895C25.4694 14.9402 25.8418 15.8447 25.8418 16.9336H26.8418C26.8418 15.5849 26.3678 14.4244 25.4258 13.4824L24.7187 14.1895ZM25.8418 16.9336C25.8418 17.9844 25.4724 18.8733 24.7187 19.6269L25.4258 20.334C26.3649 19.395 26.8418 18.2526 26.8418 16.9336H25.8418ZM24.7187 19.6269C23.968 20.3776 23.0635 20.75 21.9746 20.75V21.75C23.3233 21.75 24.4838 21.276 25.4258 20.334L24.7187 19.6269ZM21.9746 20.75C20.9238 20.75 20.0349 20.3806 19.2813 19.6269L18.5742 20.334C19.5132 21.2731 20.6556 21.75 21.9746 21.75V20.75ZM19.2813 19.6269C18.5276 18.8733 18.1582 17.9844 18.1582 16.9336H17.1582C17.1582 18.2526 17.6351 19.395 18.5742 20.334L19.2813 19.6269ZM18.1582 16.9336C18.1582 15.8447 18.5306 14.9402 19.2813 14.1895L18.5742 13.4824C17.6322 14.4244 17.1582 15.5849 17.1582 16.9336H18.1582ZM18.5859 23.26C19.8439 22.962 20.9724 22.8164 21.9746 22.8164V21.8164C20.8778 21.8164 19.6704 21.9755 18.3555 22.2869L18.5859 23.26ZM21.9746 22.8164C23.0117 22.8164 24.1574 22.9624 25.4141 23.26L25.6445 22.2869C24.3283 21.9751 23.1041 21.8164 21.9746 21.8164V22.8164ZM25.4141 23.26C26.6441 23.5513 27.7556 24.0354 28.7528 24.7108L29.3136 23.8829C28.2118 23.1365 26.9874 22.605 25.6445 22.2869L25.4141 23.26ZM28.7682 24.7209C29.7694 25.3466 30.1582 26.0059 30.1582 26.6836H31.1582C31.1582 25.5331 30.4637 24.6013 29.2982 23.8729L28.7682 24.7209ZM30.1582 26.6836V29.9336H31.1582V26.6836H30.1582ZM30.6582 29.4336H13.3418V30.4336H30.6582V29.4336ZM13.8418 29.9336V26.6836H12.8418V29.9336H13.8418ZM13.8418 26.6836C13.8418 25.9983 14.2225 25.3393 15.1871 24.717L14.645 23.8767C13.5105 24.6086 12.8418 25.5408 12.8418 26.6836H13.8418ZM15.1903 24.7149C16.224 24.0365 17.3549 23.5515 18.5859 23.26L18.3555 22.2869C17.0136 22.6047 15.7747 23.1353 14.6417 23.8789L15.1903 24.7149Z" fill="#78B0EF"/>
</svg>
